P3
004 004 255
024 003 003
022 001 001
021 000 000
021 000 000
021 000 000
021 000 000
021 000 000
040 014 057
255 008 255
255 004 255
017 002 068
029 255 255
021 000 000
255 255 255
255 255 255
000 217 230
