P3
004 004 255
000 000 000
000 000 000
000 000 000
001 001 001
000 000 000
000 000 000
005 000 000
000 000 000
021 000 000
000 000 000
000 000 000
021 000 000
000 000 000
000 000 000
000 000 000
021 000 000
